<svg width="20" height="20" viewBox="0 0 20 20" fill="none" xmlns="http://www.w3.org/2000/svg">
<path d="M8.33333 10.8333H2.5C2.27899 10.8333 2.06703 10.9211 1.91075 11.0774C1.75447 11.2337 1.66667 11.4456 1.66667 11.6667V17.5C1.66667 17.721 1.75447 17.933 1.91075 18.0892C2.06703 18.2455 2.27899 18.3333 2.5 18.3333H8.33333C8.55435 18.3333 8.76631 18.2455 8.92259 18.0892C9.07887 17.933 9.16667 17.721 9.16667 17.5V11.6667C9.16667 11.4456 9.07887 11.2337 8.92259 11.0774C8.76631 10.9211 8.55435 10.8333 8.33333 10.8333ZM7.5 16.6667H3.33333V12.5H7.5V16.6667ZM17.5 1.66666H11.6667C11.4457 1.66666 11.2337 1.75445 11.0774 1.91073C10.9211 2.06701 10.8333 2.27898 10.8333 2.49999V8.33332C10.8333 8.55434 10.9211 8.7663 11.0774 8.92258C11.2337 9.07886 11.4457 9.16666 11.6667 9.16666H17.5C17.721 9.16666 17.933 9.07886 18.0893 8.92258C18.2455 8.7663 18.3333 8.55434 18.3333 8.33332V2.49999C18.3333 2.27898 18.2455 2.06701 18.0893 1.91073C17.933 1.75445 17.721 1.66666 17.5 1.66666ZM16.6667 7.49999H12.5V3.33332H16.6667V7.49999ZM17.5 10.8333H11.6667C11.4457 10.8333 11.2337 10.9211 11.0774 11.0774C10.9211 11.2337 10.8333 11.4456 10.8333 11.6667V17.5C10.8333 17.721 10.9211 17.933 11.0774 18.0892C11.2337 18.2455 11.4457 18.3333 11.6667 18.3333H17.5C17.721 18.3333 17.933 18.2455 18.0893 18.0892C18.2455 17.933 18.3333 17.721 18.3333 17.5V11.6667C18.3333 11.4456 18.2455 11.2337 18.0893 11.0774C17.933 10.9211 17.721 10.8333 17.5 10.8333ZM16.6667 16.6667H12.5V12.5H16.6667V16.6667ZM8.33333 1.66666H2.5C2.27899 1.66666 2.06703 1.75445 1.91075 1.91073C1.75447 2.06701 1.66667 2.27898 1.66667 2.49999V8.33332C1.66667 8.55434 1.75447 8.7663 1.91075 8.92258C2.06703 9.07886 2.27899 9.16666 2.5 9.16666H8.33333C8.55435 9.16666 8.76631 9.07886 8.92259 8.92258C9.07887 8.7663 9.16667 8.55434 9.16667 8.33332V2.49999C9.16667 2.27898 9.07887 2.06701 8.92259 1.91073C8.76631 1.75445 8.55435 1.66666 8.33333 1.66666ZM7.5 7.49999H3.33333V3.33332H7.5V7.49999Z" fill="#6A5ACD"/>
</svg>
