<svg width="20" height="22" viewBox="0 0 20 22" fill="none" xmlns="http://www.w3.org/2000/svg">
<path d="M7.22408 13.7629L8.75894 15.2978L12.8519 11.2048" stroke="#292D32" stroke-width="1.5" stroke-linecap="round" stroke-linejoin="round"/>
<path d="M7.93012 4.86071H12.0231C14.0696 4.86071 14.0696 3.83747 14.0696 2.81423C14.0696 0.767743 13.0463 0.767743 12.0231 0.767743H7.93012C6.90688 0.767743 5.88364 0.767743 5.88364 2.81423C5.88364 4.86071 6.90688 4.86071 7.93012 4.86071Z" stroke="#292D32" stroke-width="1.5" stroke-miterlimit="10" stroke-linecap="round" stroke-linejoin="round"/>
<path d="M14.0696 2.83471C17.477 3.01889 19.1858 4.27748 19.1858 8.95369V15.0931C19.1858 19.1861 18.1625 21.2326 13.0463 21.2326H6.90688C1.79067 21.2326 0.767431 19.1861 0.767431 15.0931V8.95369C0.767431 4.28771 2.47624 3.01889 5.88364 2.83471" stroke="#292D32" stroke-width="1.5" stroke-miterlimit="10" stroke-linecap="round" stroke-linejoin="round"/>
</svg>
