<svg width="21" height="22" viewBox="0 0 21 22" fill="none" xmlns="http://www.w3.org/2000/svg">
<path d="M7.70255 9.79491C7.60073 9.78473 7.47855 9.78473 7.36655 9.79491C4.94327 9.71346 3.01891 7.728 3.01891 5.28437C3.01891 2.78982 5.03491 0.763637 7.53964 0.763637C10.0342 0.763637 12.0604 2.78982 12.0604 5.28437C12.0502 7.728 10.1258 9.71346 7.70255 9.79491Z" stroke="#292D32" stroke-width="1.5" stroke-linecap="round" stroke-linejoin="round"/>
<path d="M15.0844 2.8C17.0596 2.8 18.648 4.39855 18.648 6.36364C18.648 8.288 17.1207 9.856 15.2167 9.92728C15.1353 9.91709 15.0436 9.91709 14.952 9.92728" stroke="#292D32" stroke-width="1.5" stroke-linecap="round" stroke-linejoin="round"/>
<path d="M2.61164 13.552C0.147636 15.2015 0.147636 17.8895 2.61164 19.5287C5.41164 21.4022 10.0036 21.4022 12.8036 19.5287C15.2676 17.8793 15.2676 15.1913 12.8036 13.552C10.0138 11.6887 5.42182 11.6887 2.61164 13.552Z" stroke="#292D32" stroke-width="1.5" stroke-linecap="round" stroke-linejoin="round"/>
<path d="M17.0495 19.0909C17.7825 18.9382 18.4749 18.6429 19.0451 18.2051C20.6335 17.0138 20.6335 15.0487 19.0451 13.8575C18.4851 13.4298 17.8029 13.1447 17.08 12.9818" stroke="#292D32" stroke-width="1.5" stroke-linecap="round" stroke-linejoin="round"/>
</svg>
