<svg width="22" height="22" viewBox="0 0 22 22" fill="none" xmlns="http://www.w3.org/2000/svg">
<path d="M17.135 6.04675C17.0736 6.03652 17.002 6.03652 16.9406 6.04675C15.5287 5.99559 14.4032 4.83945 14.4032 3.40705C14.4032 1.94396 15.5798 0.767354 17.0429 0.767354C18.506 0.767354 19.6826 1.9542 19.6826 3.40705C19.6724 4.83945 18.5469 5.99559 17.135 6.04675Z" stroke="#292D32" stroke-width="1.5" stroke-linecap="round" stroke-linejoin="round"/>
<path d="M16.0812 13.4952C17.4829 13.7305 19.0278 13.485 20.1123 12.7585C21.555 11.7968 21.555 10.2212 20.1123 9.25941C19.0176 8.53298 17.4522 8.28742 16.0505 8.53298" stroke="#292D32" stroke-width="1.5" stroke-linecap="round" stroke-linejoin="round"/>
<path d="M4.82665 6.04675C4.88804 6.03652 4.95966 6.03652 5.02105 6.04675C6.43298 5.99559 7.55843 4.83945 7.55843 3.40705C7.55843 1.94396 6.38182 0.767354 4.91874 0.767354C3.45565 0.767354 2.27904 1.9542 2.27904 3.40705C2.28927 4.83945 3.41472 5.99559 4.82665 6.04675Z" stroke="#292D32" stroke-width="1.5" stroke-linecap="round" stroke-linejoin="round"/>
<path d="M5.88049 13.4952C4.47879 13.7305 2.93385 13.485 1.84932 12.7585C0.406697 11.7968 0.406697 10.2212 1.84932 9.25941C2.94408 8.53298 4.50948 8.28742 5.91118 8.53298" stroke="#292D32" stroke-width="1.5" stroke-linecap="round" stroke-linejoin="round"/>
<path d="M10.9962 13.6896C10.9348 13.6794 10.8632 13.6794 10.8018 13.6896C9.38985 13.6384 8.2644 12.4823 8.2644 11.0499C8.2644 9.58681 9.441 8.4102 10.9041 8.4102C12.3672 8.4102 13.5438 9.59704 13.5438 11.0499C13.5336 12.4823 12.4081 13.6487 10.9962 13.6896Z" stroke="#292D32" stroke-width="1.5" stroke-linecap="round" stroke-linejoin="round"/>
<path d="M8.01884 16.9125C6.57622 17.8742 6.57622 19.4498 8.01884 20.4116C9.65587 21.5063 12.3365 21.5063 13.9735 20.4116C15.4161 19.4498 15.4161 17.8742 13.9735 16.9125C12.3467 15.8279 9.65587 15.8279 8.01884 16.9125Z" stroke="#292D32" stroke-width="1.5" stroke-linecap="round" stroke-linejoin="round"/>
</svg>
